<?xml version="1.0" encoding="UTF-8"?>
<svg version="1.1" xmlns="http://www.w3.org/2000/svg" width="44" height="44">
<path d="M0 0 C14.52 0 29.04 0 44 0 C44 14.52 44 29.04 44 44 C29.48 44 14.96 44 0 44 C0 29.48 0 14.96 0 0 Z " fill="#FC9402" transform="translate(0,0)"/>
<path d="M0 0 C1.17825358 0.90172468 2.34231577 1.82201502 3.5 2.75 C4.1496875 3.26046875 4.799375 3.7709375 5.46875 4.296875 C7 6 7 6 7 10 C5.40202008 13.41828748 3.3401028 15.28020239 0 17 C-5.94785984 17.89003348 -12.02591993 17.398272 -18 17 C-17.04270084 15.87411986 -16.08412105 14.7493285 -15.125 13.625 C-14.59132813 12.99851562 -14.05765625 12.37203125 -13.5078125 11.7265625 C-10.27293065 8.02237136 -10.27293065 8.02237136 -7.6171875 7.8046875 C-6.71226563 7.82789063 -5.80734375 7.85109375 -4.875 7.875 C-3.50988281 7.90207031 -3.50988281 7.90207031 -2.1171875 7.9296875 C-1.41851563 7.95289063 -0.71984375 7.97609375 0 8 C0 5.36 0 2.72 0 0 Z " fill="#FFF9F2" transform="translate(27,19)"/>
<path d="M0 0 C-0.95729916 1.12588014 -1.91587895 2.2506715 -2.875 3.375 C-3.40867187 4.00148438 -3.94234375 4.62796875 -4.4921875 5.2734375 C-7.72492552 8.97517378 -7.72492552 8.97517378 -10.1640625 9.1953125 C-11.38222656 9.16050781 -11.38222656 9.16050781 -12.625 9.125 C-13.44226562 9.10695313 -14.25953125 9.08890625 -15.1015625 9.0703125 C-15.72804688 9.04710937 -16.35453125 9.02390625 -17 9 C-17 11.64 -17 14.28 -17 17 C-18.17825358 16.09827532 -19.34231577 15.17798498 -20.5 14.25 C-21.1496875 13.73953125 -21.799375 13.2290625 -22.46875 12.703125 C-24 11 -24 11 -24 7 C-20.39643587 -3.18938824 -8.66823405 -0.57243055 0 0 Z " fill="#FFFCF7" transform="translate(35,9)"/>
<path d="M0 0 C3.3 0 6.6 0 10 0 C9.67 2.97 9.34 5.94 9 9 C5.7 9 2.4 9 -1 9 C-0.67 6.03 -0.34 3.06 0 0 Z " fill="#FF9B0F" transform="translate(18,18)"/>
</svg>
